<svg xmlns="http://www.w3.org/2000/svg">
  <path
    d="M34.1.79H23.5v27.38h6.6v-8.6h4c6.22 0 9.82-3.96 9.82-9.4 0-5.43-3.6-9.38-9.81-9.38Zm-.68 12.96H30.1V6.6h3.32c2.4 0 3.78 1.32 3.78 3.58s-1.38 3.57-3.78 3.57ZM12.22 11.7c-2.03-.58-3.32-1-3.95-1.4-.52-.35-.83-.84-.83-1.41 0-1.29 1.03-2.26 3.35-2.26 2.2 0 3.37.94 3.37 2.34h6.64c0-5.12-4.29-8.52-9.7-8.52-3.2 0-5.66.68-7.61 2.34A7.81 7.81 0 0 0 .74 8.95c0 2.26.69 3.89 1.75 5.03 1 1.09 3.03 2.38 6.2 3.23 2.3.63 3.93 1.12 4.67 1.6.77.5.98.92.98 1.5 0 1.22-1.23 2.05-3.7 2.05-2.29 0-3.52-.85-3.6-2.34H.3c0 5.18 4.24 8.5 10.33 8.5 5.93 0 10.39-3.67 10.39-8.33a6.9 6.9 0 0 0-1.55-4.72c-1.08-1.37-3.26-2.6-7.26-3.78Z"
  />
</svg>
